<svg xmlns="http://www.w3.org/2000/svg" version="1.0" viewBox="0 0 173 135"><path fill-opacity=".1" d="M126.8 20.7c.7.3 1.6.2 1.9-.1.4-.3-.2-.6-1.3-.5-1.1 0-1.4.3-.6.6z"/><path fill-opacity=".2" d="M114.8 8.7c1.2.2 3.2.2 4.5 0 1.2-.2.2-.4-2.3-.4s-3.5.2-2.2.4zm7.5 12c.9.2 2.3.2 3 0 .6-.3-.1-.5-1.8-.5-1.6 0-2.2.2-1.2.5z"/><path fill-opacity=".3" d="M122.3 8.7c.9.2 2.3.2 3 0 .6-.3-.1-.5-1.8-.5-1.6 0-2.2.2-1.2.5zm-3.5 12c.7.3 1.6.2 1.9-.1.4-.3-.2-.6-1.3-.5-1.1 0-1.4.3-.6.6z"/><path fill-opacity=".4" d="M127.8 8.7c1.2.2 3.2.2 4.5 0 1.2-.2.2-.4-2.3-.4s-3.5.2-2.2.4zm-15.4 6.8c.1 4.8.2 5 3.1 5.1 2.7.2 2.8.2.3-.3-2.4-.4-2.7-.9-3.1-5.1l-.4-4.7.1 5z"/><path fill-opacity=".5" d="M135.3 8.7c.9.2 2.3.2 3 0 .6-.3-.1-.5-1.8-.5-1.6 0-2.2.2-1.2.5z"/><path fill-opacity=".6" d="M141.3 8.7c1.5.2 3.7.2 5 0 1.2-.2 0-.4-2.8-.4-2.7 0-3.8.2-2.2.4z"/><path fill-opacity=".7" d="M148.8 8.7c.6.2 1.8.2 2.5 0 .6-.3.1-.5-1.3-.5-1.4 0-1.9.2-1.2.5z"/><path fill-opacity=".8" d="M154.3 8.7c1.5.2 3.7.2 5 0 1.2-.2 0-.4-2.8-.4-2.7 0-3.8.2-2.2.4zm-16 11c.9.2 2.3.2 3 0 .6-.3-.1-.5-1.8-.5-1.6 0-2.2.2-1.2.5z"/><path fill-opacity=".9" d="M162.3 8.7c.9.2 2.3.2 3 0 .6-.3-.1-.5-1.8-.5-1.6 0-2.2.2-1.2.5zm-27.5 11c.7.3 1.6.2 1.9-.1.4-.3-.2-.6-1.3-.5-1.1 0-1.4.3-.6.6z"/><path d="M139.8 8.7 113 9v11.3l16.2-.7 16.1-.6-4.4 3.3c-2.4 1.8-35.1 26-72.7 53.6L0 126.2v4.4c0 8.8-.6 9.2 78.4-49.1C118.3 52.1 151.1 28 151.3 28c.3 0-1.2 6.7-3.3 14.9l-3.7 14.9 5.1 1.5c2.8.8 5.2 1.4 5.3 1.3.2-.2 13.3-50.9 13.3-51.8 0-.4-.3-.7-.7-.6-.5.2-12.8.4-27.5.5z"/></svg>