<?xml version="1.0" standalone="no"?>
<!DOCTYPE svg PUBLIC "-//W3C//DTD SVG 20010904//EN"
 "http://www.w3.org/TR/2001/REC-SVG-20010904/DTD/svg10.dtd">
<svg version="1.0" xmlns="http://www.w3.org/2000/svg"
 width="585.000000pt" height="585.000000pt" viewBox="0 0 585.000000 585.000000"
 preserveAspectRatio="xMidYMid meet">
<metadata>
Created by potrace 1.14, written by Peter Selinger 2001-2017
</metadata>
<g transform="translate(0.000000,585.000000) scale(0.100000,-0.100000)"
fill="#000000" stroke="none">
<path d="M2405 5815 c-161 -16 -407 -51 -500 -71 -387 -82 -699 -173 -1000
-289 -86 -34 -93 -39 -99 -68 -9 -43 -5 -1006 6 -1292 11 -331 71 -959 94
-997 3 -4 453 -8 1000 -8 l994 0 0 145 c0 90 -4 145 -10 145 -5 0 -10 -6 -10
-14 0 -8 -16 -16 -42 -19 -63 -9 -635 12 -988 37 l-305 21 0 30 c0 25 6 31 39
44 30 11 42 12 57 3 10 -7 47 -11 81 -11 54 1 58 2 28 9 -19 4 -61 19 -92 34
-48 21 -58 30 -58 51 0 31 10 31 103 1 40 -14 104 -28 142 -31 68 -5 69 -5 34
9 -20 8 -66 35 -102 62 -55 39 -67 53 -67 76 0 40 24 36 89 -12 51 -38 116
-64 193 -76 27 -5 63 2 130 24 170 56 202 62 320 63 72 1 104 4 88 9 -44 14
-202 10 -265 -6 -33 -9 -99 -23 -146 -32 l-86 -16 -58 28 c-42 21 -64 40 -86
74 -16 25 -29 54 -29 63 0 29 22 34 39 9 68 -101 120 -115 273 -75 144 38 200
45 288 35 91 -10 174 -38 246 -81 74 -45 174 -137 174 -160 0 -10 4 -19 10
-19 6 0 11 84 13 218 l2 217 3 -217 c2 -199 10 -258 26 -194 3 13 40 58 82
100 79 79 173 134 266 156 82 18 208 12 304 -16 220 -63 239 -63 302 13 44 52
62 55 62 10 0 -26 -9 -42 -42 -73 -24 -22 -56 -46 -71 -52 -38 -16 -120 -15
-187 3 -87 23 -83 16 10 -17 70 -25 102 -30 180 -31 92 -2 97 -1 182 40 73 35
89 39 99 27 17 -20 -32 -62 -133 -113 l-83 -42 80 6 c44 3 112 10 152 16 71
11 103 8 103 -10 0 -13 -65 -42 -140 -62 l-65 -18 77 0 c45 -1 78 3 80 10 2 7
18 6 51 -2 41 -12 47 -16 47 -40 0 -34 -5 -35 -195 -49 -82 -6 -161 -13 -175
-15 -14 -3 -162 -10 -330 -16 -168 -6 -366 -13 -440 -16 -130 -4 -137 -4 -183
21 -26 14 -50 26 -53 26 -2 0 -4 -67 -4 -150 l0 -150 955 0 c525 0 955 3 955
8 0 4 9 66 20 137 32 207 72 571 90 833 21 297 69 1205 70 1323 0 24 -8 30
-97 64 -446 172 -903 287 -1395 351 -169 22 -915 29 -1103 9z m502 -87 c-3 -8
-6 -5 -6 6 -1 11 2 17 5 13 3 -3 4 -12 1 -19z m0 -110 c-3 -8 -6 -5 -6 6 -1
11 2 17 5 13 3 -3 4 -12 1 -19z m28 -1318 c19 0 26 7 31 28 3 15 10 37 15 50
5 13 9 33 9 46 0 13 7 43 16 67 8 24 19 68 24 98 13 75 40 141 58 141 13 0 14
-16 9 -112 -4 -62 -14 -164 -23 -226 -9 -62 -15 -115 -13 -117 2 -2 17 -5 34
-7 27 -3 32 2 57 52 15 30 37 62 48 72 11 9 20 23 20 31 0 8 7 20 16 27 8 8
32 43 54 79 44 76 84 118 95 101 11 -17 0 -49 -64 -182 -33 -68 -69 -147 -81
-177 -19 -49 -19 -55 -5 -77 19 -29 30 -30 47 -5 7 10 36 33 63 51 28 19 85
62 127 97 122 100 168 123 168 84 0 -12 -58 -76 -145 -162 -107 -105 -145
-149 -143 -164 4 -28 40 -31 85 -7 83 42 314 132 342 132 53 0 21 -39 -74 -90
-33 -18 -62 -36 -65 -40 -3 -4 -45 -26 -94 -49 -111 -51 -119 -57 -105 -82 9
-18 19 -19 167 -14 163 7 273 -2 279 -21 6 -19 -46 -29 -375 -73 -30 -4 -57
-13 -61 -20 -14 -22 -47 4 -66 51 -50 128 -164 245 -282 293 -54 21 -79 25
-171 25 -125 0 -190 -16 -273 -66 -83 -50 -174 -163 -205 -256 -20 -60 -34
-63 -113 -25 -25 11 -70 22 -100 25 -31 2 -74 10 -96 17 -22 8 -70 19 -107 25
-69 12 -119 43 -100 62 11 11 249 -4 381 -23 48 -7 77 -7 83 -1 15 15 5 46
-17 50 -11 2 -25 10 -30 17 -6 7 -64 48 -130 90 -128 83 -178 123 -169 137 11
17 45 7 131 -38 48 -26 133 -69 187 -96 l100 -49 18 23 c19 25 23 44 10 50 -5
2 -26 25 -46 52 -70 93 -111 141 -147 176 -20 19 -42 45 -48 57 -14 29 -14 63
1 63 6 0 78 -65 159 -145 81 -80 154 -145 162 -145 29 0 47 12 47 33 0 28 -41
137 -51 137 -5 0 -9 7 -9 16 0 10 -13 59 -30 111 -36 112 -39 163 -10 163 15
0 28 -19 56 -80 20 -44 41 -80 45 -80 5 0 9 -9 9 -20 0 -10 9 -24 21 -30 11
-6 19 -19 17 -29 -2 -10 2 -24 8 -32 6 -8 16 -33 24 -57 16 -51 32 -66 61 -57
19 6 20 11 14 53 -13 81 -21 392 -11 403 32 31 41 0 92 -305 28 -167 33 -134
36 214 l3 335 2 -337 3 -338 25 0z"/>
<path d="M3420 3711 c41 -4 93 -11 115 -15 35 -5 37 -5 15 5 -14 6 -65 13
-115 14 l-90 4 75 -8z"/>
<path d="M3270 3700 c-10 -6 -2 -7 25 -3 49 7 58 13 19 13 -16 0 -36 -5 -44
-10z"/>
<path d="M3047 3589 c-26 -23 -46 -43 -44 -45 2 -2 26 16 53 41 61 56 55 59
-9 4z"/>
<path d="M3240 3617 c-54 -16 -122 -57 -172 -105 -40 -38 -68 -38 -68 0 0 17
-3 19 -12 10 -9 -9 -7 -16 7 -32 23 -25 33 -25 59 -1 30 27 150 68 258 87 66
11 126 15 208 11 l115 -5 -60 20 c-77 25 -270 34 -335 15z"/>
<path d="M2285 3581 l-70 -18 140 5 c119 4 158 1 255 -18 63 -12 123 -27 133
-32 9 -5 17 -6 17 -3 0 3 -35 23 -77 43 -76 36 -81 37 -203 39 -91 1 -144 -3
-195 -16z"/>
<path d="M2832 3511 c2 -5 -6 -17 -17 -25 -19 -16 -19 -16 8 -5 28 13 34 24
17 34 -6 4 -9 2 -8 -4z"/>
<path d="M3310 3500 c-105 -12 -150 -22 -157 -33 -4 -6 0 -8 11 -4 10 4 147 7
304 8 264 1 281 2 217 13 -92 17 -294 26 -375 16z"/>
<path d="M2295 3485 c-77 -12 -72 -12 145 -12 171 0 209 2 160 9 -116 15 -223
16 -305 3z"/>
<path d="M920 2991 c0 -25 66 -326 101 -461 45 -173 134 -447 176 -541 l28
-61 1634 1 1635 1 23 57 c110 269 226 677 277 976 l7 37 -1941 0 c-1103 0
-1940 -4 -1940 -9z m350 -441 l0 -120 45 0 c43 0 45 -1 45 -30 l0 -30 -70 0
-70 0 0 150 0 150 25 0 25 0 0 -120z m1330 -30 l0 -150 -25 0 -25 0 0 150 0
150 25 0 25 0 0 -150z m100 120 c0 -23 -4 -30 -20 -30 -16 0 -20 7 -20 30 0
23 4 30 20 30 16 0 20 -7 20 -30z m300 -15 c0 -43 1 -45 20 -35 23 12 54 0 64
-26 3 -8 6 -56 6 -105 0 -88 0 -89 -25 -89 -25 0 -25 1 -25 86 0 76 -2 85 -17
82 -15 -3 -18 -16 -21 -86 -3 -80 -4 -82 -27 -82 l-25 0 0 150 0 150 25 0 c23
0 25 -4 25 -45z m194 -17 c-2 -10 3 -18 12 -18 8 0 14 -10 14 -25 0 -16 -6
-25 -16 -25 -14 0 -16 -8 -10 -57 4 -32 11 -60 15 -63 17 -10 16 -42 -1 -54
-13 -8 -23 -8 -35 0 -14 9 -20 31 -25 100 -4 49 -7 94 -8 99 -2 22 14 71 29
88 15 18 16 18 22 -5 3 -12 5 -31 3 -40z m816 17 c0 -43 1 -45 21 -35 16 9 26
8 45 -5 23 -15 24 -21 24 -115 0 -100 0 -100 -25 -100 -25 0 -25 1 -25 86 0
76 -2 85 -17 82 -15 -3 -18 -16 -21 -86 -3 -80 -4 -82 -27 -82 l-25 0 0 150 0
150 25 0 c23 0 25 -4 25 -45z m190 15 c0 -23 -4 -30 -20 -30 -16 0 -20 7 -20
30 0 23 4 30 20 30 16 0 20 -7 20 -30z m-2562 -15 c-3 -24 0 -35 9 -35 7 0 13
-11 13 -25 0 -14 -6 -25 -14 -25 -10 0 -12 -13 -8 -52 2 -29 8 -57 13 -63 14
-14 10 -55 -5 -61 -8 -3 -24 -1 -35 6 -19 9 -21 20 -21 90 0 47 -4 80 -10 80
-5 0 -10 9 -10 19 0 11 5 23 10 26 6 3 10 17 10 30 0 22 22 44 44 45 4 0 6
-16 4 -35z m-133 -48 c20 -17 28 -35 32 -70 l6 -47 -47 0 c-35 0 -46 -4 -46
-15 0 -20 30 -32 40 -15 12 19 46 7 42 -15 -9 -52 -65 -72 -101 -36 -43 43
-40 161 4 198 32 28 38 28 70 0z m584 -23 c16 -35 14 -120 -4 -154 -43 -82
-135 -22 -135 88 0 38 28 92 52 101 32 12 73 -5 87 -35z m349 7 c-2 -14 -9
-26 -16 -26 -22 0 -32 -28 -32 -97 0 -64 -1 -68 -22 -68 -23 0 -23 2 -21 102
2 57 3 107 3 112 0 4 9 6 19 3 10 -2 25 -1 31 3 22 14 41 -1 38 -29z m397 29
c3 -5 19 -7 36 -3 l31 6 -4 -136 c-3 -116 -6 -138 -22 -156 -38 -42 -116 -16
-116 39 0 24 3 28 18 23 9 -3 25 -13 34 -20 20 -18 38 -9 38 17 0 16 -5 18
-29 14 -42 -9 -63 27 -65 112 -1 60 1 68 27 90 30 26 43 29 52 14z m613 -17
c27 -36 6 -63 -30 -39 -15 10 -28 12 -37 7 -11 -7 -4 -14 27 -30 23 -12 46
-30 52 -40 23 -43 -15 -111 -63 -111 -21 0 -67 43 -67 63 0 24 37 27 53 4 8
-12 18 -17 25 -13 21 13 13 25 -27 45 -43 22 -57 54 -42 94 18 48 79 58 109
20z m193 -12 c18 -22 20 -37 17 -90 -4 -54 -8 -67 -32 -87 -15 -13 -34 -24
-42 -24 -27 0 -62 46 -69 91 -17 115 66 187 126 110z m252 6 c16 -18 16 -22 3
-36 -14 -13 -18 -13 -36 4 -14 13 -24 15 -31 8 -7 -7 2 -18 33 -35 41 -22 43
-26 43 -67 0 -36 -5 -47 -27 -64 -36 -27 -78 -15 -92 26 -14 38 11 56 36 27 9
-12 23 -18 32 -14 22 8 20 21 -3 29 -42 13 -71 46 -71 79 0 71 67 97 113 43z
m496 -3 c6 -14 11 -63 11 -109 0 -84 0 -85 -25 -85 -25 0 -25 1 -25 86 0 76
-2 85 -17 82 -15 -3 -18 -16 -21 -86 -3 -80 -4 -82 -27 -82 l-25 0 0 111 0
112 28 -6 c15 -3 34 -2 41 2 21 13 48 2 60 -25z m171 11 c6 -7 13 -36 17 -64
l6 -51 -47 0 c-49 0 -54 -5 -32 -35 13 -18 14 -18 26 2 15 23 50 20 50 -4 0
-19 -45 -63 -65 -63 -27 0 -65 46 -66 82 -3 54 2 102 13 121 18 34 74 41 98
12z m-2741 -22 c27 -109 23 -103 32 -53 15 82 19 90 39 90 26 0 26 -1 -11
-158 -29 -120 -34 -134 -57 -143 -35 -13 -52 -5 -52 26 0 18 5 25 20 25 26 0
26 40 0 140 -25 95 -25 110 0 110 14 0 22 -10 29 -37z m381 -49 c0 -76 2 -85
18 -82 14 3 17 16 20 86 3 80 4 82 27 82 l25 0 0 -111 0 -111 -29 5 c-15 3
-33 1 -39 -5 -16 -16 -52 1 -63 29 -5 13 -9 62 -9 109 0 83 0 84 25 84 25 0
25 -1 25 -86z m500 -24 c0 -103 -1 -110 -20 -110 -19 0 -20 7 -20 110 0 103 1
110 20 110 19 0 20 -7 20 -110z m1500 0 c0 -103 -1 -110 -20 -110 -19 0 -20 7
-20 110 0 103 1 110 20 110 19 0 20 -7 20 -110z"/>
<path d="M1450 2521 c0 -15 6 -21 21 -21 25 0 22 33 -4 38 -12 2 -17 -3 -17
-17z"/>
<path d="M2007 2533 c-10 -9 -8 -86 2 -102 13 -21 38 -6 45 27 12 50 -21 102
-47 75z"/>
<path d="M2807 2534 c-13 -13 -7 -91 7 -103 21 -18 38 11 34 61 -3 41 -22 61
-41 42z"/>
<path d="M3564 2526 c-3 -7 -4 -33 -2 -57 2 -36 7 -44 23 -44 25 0 40 50 26
88 -11 29 -38 36 -47 13z"/>
<path d="M4499 2538 c-8 -27 -5 -38 12 -38 12 0 19 7 19 20 0 11 -7 20 -15 20
-8 0 -15 -1 -16 -2z"/>
<path d="M1270 1822 c0 -16 153 -308 208 -397 104 -169 266 -396 361 -505 267
-307 569 -573 926 -815 l130 -88 5 154 5 154 5 -157 5 -158 100 76 c358 272
721 632 965 955 165 220 342 509 434 712 l35 77 -1589 0 c-875 0 -1590 -4
-1590 -8z"/>
</g>
</svg>
